<svg height="700pt" preserveAspectRatio="xMidYMid meet" viewBox="0 0 700 700" width="700pt" xmlns="http://www.w3.org/2000/svg"><path d="m3280 6993c-19-1-87-8-150-14-507-48-1041-231-1486-509-1421-891-2009-2649-1412-4228 61-161 206-454 298-600 157-251 395-535 609-729 558-504 1225-804 1986-893 155-18 460-24 620-11 496 39 907 152 1330 366 217 109 341 186 528 326 1022 766 1543 2030 1361 3299-84 588-315 1141-673 1615-666 880-1709 1393-2811 1383-91-1-181-3-200-5zm2204-2229c24-24 19-52-12-68-16-8-415-177-888-375-472-197-908-380-968-405s-115-46-121-46c-11 0-1883 785-1965 823-31 15-39 56-14 74 15 11 382 13 1985 13 1775 0 1969-2 1983-16zm-3753-553c1236-561 1546-705 1561-723 17-19 18-77 12-987-3-531-7-976-10-989-6-28-44-47-77-38-33 8-1847 2759-1847 2801 0 35 26 65 56 65 12 0 150-58 305-129zm3881 112c10-9 18-29 18-46 0-44-1812-2795-1847-2803-33-9-71 10-77 38-3 13-7 456-10 985l-6 962 23 27c16 19 285 146 927 439 498 228 916 414 929 414 14 1 33-6 43-16z" transform="matrix(.1 0 0 -.1 0 700)"/></svg>